# xmcd
#
# Track frame offsets:
#	150
#	22904
#	44329
#	62786
#	81092
#
# Disc length: 1370 seconds
#
# Revision: 1
# Processed by: cddbd v1.5.1PL2 Copyright (c) Steve Scherf et al.
# Submitted via: EasyCDDAExtractor 9.0.0.1
#
DISCID=35055805
DTITLE=Metallica - The State Theater Detroit 20-11-98 Disc 2
DYEAR=1998
DGENRE=Hard Rock
TTITLE0=Killing Time
TTITLE1=The Wait
TTITLE2=Last Caress - Green Hell
TTITLE3=Breadfan
TTITLE4=Overkill
EXTD=
EXTT0=
EXTT1=
EXTT2=
EXTT3=
EXTT4=
PLAYORDER=
